<svg width="250" height="72" viewBox="0 0 250 72" fill="none" xmlns="http://www.w3.org/2000/svg">
<path d="M6.72776 58.3437C5.22126 58.3437 4 57.1224 4 55.6159V12.7527C4 11.2462 5.22126 10.0249 6.72776 10.0249H19.7367C20.9526 10.0249 22.0217 10.8297 22.3581 11.9982L31.6533 44.2904C31.6652 44.3319 31.7032 44.3605 31.7464 44.3605C31.7899 44.3605 31.828 44.3316 31.8398 44.2898L40.9239 12.0137C41.2549 10.8375 42.3278 10.0249 43.5496 10.0249H55.5942C57.1007 10.0249 58.322 11.2462 58.322 12.7527V55.6159C58.322 57.1224 57.1007 58.3437 55.5942 58.3437H50.0682C48.5617 58.3437 47.3404 57.1224 47.3404 55.6159V22.0422C47.3404 21.9958 47.3029 21.9582 47.2565 21.9582C47.2194 21.9582 47.1867 21.9825 47.1761 22.018L36.8686 56.3993C36.5227 57.5533 35.4606 58.3437 34.2558 58.3437H27.9276C26.7191 58.3437 25.6547 57.5485 25.3119 56.3896L15.1457 22.0182C15.1352 21.9826 15.1025 21.9582 15.0653 21.9582C15.0191 21.9582 14.9815 21.9957 14.9815 22.042V55.6159C14.9815 57.1224 13.7603 58.3437 12.2538 58.3437H6.72776Z" fill="#2ACC32"/>
<path d="M78.6207 59.3686C74.9601 59.3686 71.8853 58.8562 69.3962 57.8312C66.9558 56.7575 64.9791 55.3177 63.4661 53.5118C61.9531 51.6571 60.855 49.5585 60.1717 47.2157C59.5372 44.873 59.2199 42.4083 59.2199 39.8215C59.2199 37.0395 59.5616 34.3795 60.2449 31.8416C60.977 29.3036 62.0751 27.0585 63.5393 25.1062C65.0524 23.1052 66.9802 21.5433 69.323 20.4208C71.7145 19.2494 74.5697 18.6637 77.8885 18.6637C81.2074 18.6637 84.0382 19.2494 86.3809 20.4208C88.7725 21.5433 90.6759 23.1296 92.0913 25.1795C93.5067 27.2293 94.4096 29.5965 94.8001 32.2808C95.1325 34.3119 95.1854 36.4687 94.9589 38.7513C94.8294 40.057 93.7033 41.0077 92.3913 41.0283L69.3847 41.3887C67.8616 41.4126 66.6142 40.1845 66.6142 38.6613V37.6652C66.6142 36.1793 67.8036 34.9667 69.2893 34.938L84.9026 34.6366C85.2204 34.6304 85.4404 34.9521 85.3193 35.246C85.1227 35.7235 84.2347 35.5169 84.2121 35.001C84.1754 34.1656 84.0686 33.4053 83.8918 32.7201C83.5501 31.1583 82.8912 29.9869 81.9151 29.206C80.939 28.3763 79.5968 27.9614 77.8885 27.9614C76.0827 27.9614 74.6429 28.4251 73.5691 29.3524C72.4954 30.2798 71.7389 31.5976 71.2996 33.3058C70.8604 34.9652 70.6407 36.9419 70.6407 39.2358C70.6407 43.1892 71.2996 46.0688 72.6174 47.8746C73.9352 49.6805 75.9607 50.5834 78.6939 50.5834C79.8652 50.5834 80.8414 50.437 81.6223 50.1441C82.4032 49.8513 83.0377 49.4364 83.5257 48.8996C84.0138 48.3139 84.3555 47.6306 84.5507 46.8497C84.8938 45.3915 86.07 44.1379 87.5659 44.2188L93.2497 44.526C94.6023 44.5992 95.7257 45.6606 95.5967 47.0091C95.5144 47.8701 95.3465 48.7443 95.0929 49.6317C94.6537 51.3399 93.7996 52.9261 92.5306 54.3903C91.2616 55.8545 89.4802 57.0503 87.1862 57.9776C84.9411 58.905 82.0859 59.3686 78.6207 59.3686Z" fill="#2ACC32"/>
<path d="M106.082 59.3686C104.13 59.3686 102.276 59.027 100.519 58.3437C98.7615 57.6604 97.3217 56.5622 96.1991 55.0492C95.0765 53.4874 94.5153 51.4131 94.5153 48.8264C94.5153 46.4348 94.9789 44.507 95.9063 43.0427C96.8336 41.5297 98.0782 40.334 99.64 39.4554C101.202 38.5281 102.91 37.8448 104.765 37.4056C106.619 36.9175 108.45 36.5026 110.255 36.161C112.793 35.6729 114.697 35.2825 115.966 34.9896C117.235 34.6968 118.089 34.3551 118.528 33.9647C119.016 33.5742 119.26 33.0374 119.26 32.3541C119.26 30.9387 118.723 29.8649 117.65 29.1328C116.625 28.4007 115.258 28.0347 113.55 28.0347C112.476 28.0347 111.402 28.2299 110.329 28.6203C109.255 29.0108 108.376 29.7185 107.693 30.7434C107.438 31.1078 107.234 31.5335 107.081 32.0203C106.598 33.5556 105.352 34.8932 103.747 34.7817L98.6583 34.4283C97.2617 34.3313 96.1401 33.1898 96.2497 31.7941C96.4062 29.7996 96.853 28.0828 97.5901 26.6437C98.615 24.5938 100.006 23.0076 101.763 21.885C103.569 20.7136 105.521 19.8839 107.62 19.3959C109.767 18.9078 111.89 18.6637 113.989 18.6637C117.845 18.6637 121.017 19.3958 123.507 20.8601C125.996 22.2755 127.826 24.3497 128.997 27.0829C130.217 29.7673 130.828 33.0374 130.828 36.8931V43.7749C130.828 45.3855 130.828 47.0205 130.828 48.6799C130.828 50.2906 130.828 51.9012 130.828 53.5118C130.828 54.2132 130.828 54.9146 130.828 55.6159C130.828 57.1224 129.606 58.3437 128.1 58.3437H123.306C121.799 58.3437 120.578 57.1224 120.578 55.6159C120.578 54.7495 120.578 53.8773 120.578 52.9993C120.578 51.2626 120.578 49.4356 120.578 47.5184C120.578 47.3917 120.475 47.2889 120.349 47.2889C120.23 47.2889 120.131 47.3797 120.119 47.4979C119.897 49.6138 119.171 51.5697 117.943 53.3654C116.722 55.1712 115.087 56.6354 113.037 57.758C111.036 58.8318 108.718 59.3686 106.082 59.3686ZM110.988 50.7298C111.817 50.7298 112.696 50.5834 113.623 50.2906C114.599 49.9489 115.502 49.412 116.332 48.6799C117.21 47.9478 117.918 46.9473 118.455 45.6783C118.992 44.3605 119.26 42.7499 119.26 40.8464V39.6943C119.26 39.3499 119.519 39.0606 119.861 39.0226C120.421 38.9605 120.741 39.5331 120.28 39.8556C119.986 40.0606 119.647 40.2445 119.26 40.4072C118.382 40.7976 117.381 41.1149 116.259 41.3589C115.136 41.5541 113.989 41.7738 112.818 42.0178C111.695 42.213 110.646 42.5059 109.67 42.8963C108.694 43.238 107.888 43.726 107.254 44.3605C106.668 44.9462 106.375 45.7759 106.375 46.8497C106.375 48.1187 106.815 49.0948 107.693 49.7781C108.62 50.4126 109.719 50.7298 110.988 50.7298Z" fill="#2ACC32"/>
<path d="M147.444 59.2222C142.905 59.2222 139.513 58.0752 137.268 55.7813C135.071 53.4386 133.973 49.8269 133.973 44.9462V31.0363C133.973 29.8637 133.023 28.9132 131.85 28.9132C130.678 28.9132 129.727 27.9626 129.727 26.7901V21.6654C129.727 21.5441 129.825 21.4457 129.947 21.4457C132.973 21.0553 135.12 20.0547 136.389 18.4441C137.658 16.7847 138.439 14.2955 138.732 10.9767C138.732 10.8958 138.798 10.8303 138.878 10.8303H142.959C144.466 10.8303 145.687 12.0515 145.687 13.558V16.9609C145.687 18.4674 146.908 19.6887 148.415 19.6887H151.818C153.324 19.6887 154.545 20.91 154.545 22.4164V26.4783C154.545 27.9848 153.324 29.206 151.818 29.206H148.415C146.908 29.206 145.687 30.4273 145.687 31.9338V43.8481C145.687 45.7027 146.126 47.0205 147.005 47.8014C147.932 48.5823 149.055 48.9728 150.372 48.9728C151.056 48.9728 151.763 48.8752 152.495 48.6799C153.459 48.4229 154.545 49.0844 154.545 50.082V56.1488C154.545 57.3624 153.747 58.4496 152.559 58.6964C151.829 58.848 151.149 58.95 150.519 59.0026C149.347 59.149 148.322 59.2222 147.444 59.2222Z" fill="#2ACC32"/>
<path d="M158.167 58.3437C156.661 58.3437 155.439 57.1224 155.439 55.6159V12.7527C155.439 11.2462 156.661 10.0249 158.167 10.0249H169.678C170.691 10.0249 171.621 10.5865 172.093 11.4834L188.505 42.7011C188.52 42.7311 188.552 42.7499 188.585 42.7499C188.636 42.7499 188.677 42.709 188.677 42.6586V12.7527C188.677 11.2462 189.898 10.0249 191.405 10.0249H197.663C199.169 10.0249 200.39 11.2462 200.39 12.7527V55.6159C200.39 57.1224 199.169 58.3437 197.663 58.3437H187.087C186.082 58.3437 185.159 57.7913 184.684 56.9061L167.325 24.5689C167.309 24.5391 167.278 24.5206 167.245 24.5206C167.194 24.5206 167.153 24.5616 167.153 24.6122V55.6159C167.153 57.1224 165.932 58.3437 164.425 58.3437H158.167Z" fill="#9A1818"/>
<path d="M221.719 59.3686C217.522 59.3686 213.91 58.3193 210.884 56.2206C207.907 54.1219 205.613 51.2179 204.002 47.5086C202.44 43.7504 201.66 39.431 201.66 34.5504C201.66 30.9387 202.099 27.5954 202.977 24.5206C203.905 21.3969 205.32 18.6882 207.224 16.3942C209.127 14.0515 211.543 12.2457 214.471 10.9767C217.4 9.65889 220.889 9 224.94 9C228.357 9 231.285 9.46366 233.726 10.391C236.215 11.3183 238.24 12.6117 239.802 14.2711C241.364 15.9306 242.462 17.8584 243.097 20.0547C243.541 21.5592 243.77 23.1475 243.783 24.8196C243.793 26.1005 242.776 27.1177 241.504 27.2693L235.818 27.9472C234.147 28.1464 232.748 26.7834 232.464 25.1243C232.327 24.3234 232.113 23.6097 231.822 22.9832C231.188 21.5678 230.236 20.5184 228.967 19.8351C227.747 19.1518 226.258 18.8102 224.501 18.8102C222.402 18.8102 220.572 19.3714 219.01 20.494C217.449 21.6166 216.228 23.3004 215.35 25.5455C214.52 27.7906 214.105 30.597 214.105 33.9647C214.105 36.4538 214.349 38.6989 214.837 40.7C215.325 42.6523 216.058 44.3117 217.034 45.6783C218.01 46.9961 219.206 48.021 220.621 48.7531C222.085 49.4364 223.745 49.7781 225.599 49.7781C227.454 49.7781 229.04 49.4608 230.358 48.8264C231.676 48.1431 232.676 47.2401 233.36 46.1176C233.626 45.6907 233.845 45.241 234.014 44.7687C234.523 43.3509 233.236 42.091 231.73 42.091H229.572C228.065 42.091 226.844 40.8698 226.844 39.3633V36.4728C226.844 34.9663 228.065 33.7451 229.572 33.7451H242.272C243.779 33.7451 245 34.9663 245 36.4728V55.6159C245 57.1224 243.779 58.3437 242.272 58.3437H239.601C238.095 58.3437 236.874 57.1224 236.874 55.6159V45.655C236.874 45.4657 236.72 45.3123 236.531 45.3123C236.352 45.3123 236.204 45.4496 236.187 45.6274C235.919 48.5166 235.196 50.9739 234.018 52.9993C232.847 55.098 231.212 56.6843 229.113 57.758C227.064 58.8318 224.599 59.3686 221.719 59.3686Z" fill="#9A1818"/>
</svg>
