<svg width="1200" height="800" viewBox="0 0 1200 800" xmlns="http://www.w3.org/2000/svg" role="img" aria-label="Corporate visual">
  <defs>
    <linearGradient id="bg" x1="0" y1="0" x2="1" y2="1">
      <stop offset="0%" stop-color="#f8fff2"/>
      <stop offset="100%" stop-color="#e5f4cf"/>
    </linearGradient>
    <linearGradient id="accent" x1="0" y1="0" x2="1" y2="1">
      <stop offset="0%" stop-color="#2f8f2f"/>
      <stop offset="100%" stop-color="#8acb5f"/>
    </linearGradient>
    <filter id="blur" x="-20%" y="-20%" width="140%" height="140%">
      <feGaussianBlur stdDeviation="26"/>
    </filter>
  </defs>
  <rect width="1200" height="800" fill="url(#bg)" rx="36"/>
  <circle cx="1020" cy="110" r="120" fill="#8acb5f" opacity="0.35" filter="url(#blur)"/>
  <circle cx="170" cy="700" r="170" fill="#2f8f2f" opacity="0.18" filter="url(#blur)"/>
  <rect x="234" y="102" width="346" height="332" rx="34" fill="white" opacity="0.92"/>
  <rect x="718" y="576" width="394" height="268" rx="34" fill="white" opacity="0.88"/>
  <rect x="140" y="140" width="420" height="16" rx="8" fill="#1d5a2f" opacity="0.2"/>
  <rect x="140" y="172" width="320" height="14" rx="7" fill="#1d5a2f" opacity="0.16"/>
  <rect x="640" y="500" width="300" height="14" rx="7" fill="#1d5a2f" opacity="0.16"/>
  <rect x="640" y="530" width="230" height="14" rx="7" fill="#1d5a2f" opacity="0.12"/>
  <circle cx="220" cy="250" r="38" fill="url(#accent)"/>
  <circle cx="740" cy="600" r="36" fill="url(#accent)"/>
  <rect x="260" y="233" width="220" height="34" rx="17" fill="#2f8f2f" opacity="0.14"/>
  <rect x="776" y="586" width="170" height="28" rx="14" fill="#2f8f2f" opacity="0.14"/>
  <text x="140" y="110" font-family="Montserrat, sans-serif" font-size="28" font-weight="700" fill="#1d5a2f">Corporate</text>
</svg>
