<svg width="1200" height="800" viewBox="0 0 1200 800" xmlns="http://www.w3.org/2000/svg" role="img" aria-label="Gifts visual">
  <defs>
    <linearGradient id="bg" x1="0" y1="0" x2="1" y2="1">
      <stop offset="0%" stop-color="#f2fff5"/>
      <stop offset="100%" stop-color="#d9f3d8"/>
    </linearGradient>
    <linearGradient id="accent" x1="0" y1="0" x2="1" y2="1">
      <stop offset="0%" stop-color="#1f7a26"/>
      <stop offset="100%" stop-color="#74ca78"/>
    </linearGradient>
    <filter id="blur" x="-20%" y="-20%" width="140%" height="140%">
      <feGaussianBlur stdDeviation="26"/>
    </filter>
  </defs>
  <rect width="1200" height="800" fill="url(#bg)" rx="36"/>
  <circle cx="1020" cy="110" r="120" fill="#74ca78" opacity="0.35" filter="url(#blur)"/>
  <circle cx="170" cy="700" r="170" fill="#1f7a26" opacity="0.18" filter="url(#blur)"/>
  <rect x="228" y="264" width="392" height="264" rx="34" fill="white" opacity="0.92"/>
  <rect x="636" y="522" width="388" height="286" rx="34" fill="white" opacity="0.88"/>
  <rect x="140" y="140" width="420" height="16" rx="8" fill="#0f5132" opacity="0.2"/>
  <rect x="140" y="172" width="320" height="14" rx="7" fill="#0f5132" opacity="0.16"/>
  <rect x="640" y="500" width="300" height="14" rx="7" fill="#0f5132" opacity="0.16"/>
  <rect x="640" y="530" width="230" height="14" rx="7" fill="#0f5132" opacity="0.12"/>
  <circle cx="220" cy="250" r="38" fill="url(#accent)"/>
  <circle cx="740" cy="600" r="36" fill="url(#accent)"/>
  <rect x="260" y="233" width="220" height="34" rx="17" fill="#1f7a26" opacity="0.14"/>
  <rect x="776" y="586" width="170" height="28" rx="14" fill="#1f7a26" opacity="0.14"/>
  <text x="140" y="110" font-family="Montserrat, sans-serif" font-size="28" font-weight="700" fill="#0f5132">Gifts</text>
</svg>
